HIERARCHY
ROOT Hips
{
	OFFSET 0.000000 0.000000 0.000000 
	CHANNELS 6 Xposition Yposition Zposition Zrotation Yrotation Xrotation
	JOINT LeftUpLeg
	{
		OFFSET 1.363060 -1.794630 0.839290 
		CHANNELS 3 Zrotation Yrotation Xrotation
		JOINT LeftLeg
		{
			OFFSET 2.448110 -6.726130 0.000000 
			CHANNELS 3 Zrotation Yrotation Xrotation
			JOINT LeftFoot
			{
				OFFSET 2.562200 -7.039590 0.000000 
				CHANNELS 3 Zrotation Yrotation Xrotation
				JOINT LeftToeBase
				{
					OFFSET 0.157640 -0.433110 2.322550 
					CHANNELS 3 Zrotation Yrotation Xrotation
					End Site
					{
						OFFSET 0.000000 0.000000 0.000000 
					}
				}
			}
		}
	}
	JOINT RightUpLeg
	{
		OFFSET -1.305520 -1.794630 0.839290 
		CHANNELS 3 Zrotation Yrotation Xrotation
		JOINT RightLeg
		{
			OFFSET -2.542530 -6.985550 0.000000 
			CHANNELS 3 Zrotation Yrotation Xrotation
			JOINT RightFoot
			{
				OFFSET -2.568260 -7.056230 0.000000 
				CHANNELS 3 Zrotation Yrotation Xrotation
				JOINT RightToeBase
				{
					OFFSET -0.164730 -0.452590 2.363150 
					CHANNELS 3 Zrotation Yrotation Xrotation
					End Site
					{
						OFFSET 0.000000 0.000000 0.000000 
					}
				}
			}
		}
	}
	JOINT Spine
	{
		OFFSET 0.028270 2.035590 -0.193380 
		CHANNELS 3 Zrotation Yrotation Xrotation
		JOINT Spine1
		{
			OFFSET 0.056720 2.048850 -0.042750 
			CHANNELS 3 Zrotation Yrotation Xrotation
			JOINT Neck1
			{
				OFFSET -0.054170 1.746240 0.172020 
				CHANNELS 3 Zrotation Yrotation Xrotation
				JOINT Head
				{
					OFFSET 0.104070 1.761360 -0.123970 
					CHANNELS 3 Zrotation Yrotation Xrotation
					End Site
					{
						OFFSET 0.000000 0.000000 0.000000 
					}
				}
			}
			JOINT LeftArm
			{
				OFFSET 3.362410 1.200890 -0.311210 
				CHANNELS 3 Zrotation Yrotation Xrotation
				JOINT LeftForeArm
				{
					OFFSET 4.983000 -0.000000 -0.000000 
					CHANNELS 3 Zrotation Yrotation Xrotation
					JOINT LeftHand
					{
						OFFSET 3.483560 -0.000000 -0.000000 
						CHANNELS 3 Zrotation Yrotation Xrotation
						JOINT LeftHandIndex1
						{
							OFFSET 0.715260 -0.000000 -0.000000 
							CHANNELS 3 Zrotation Yrotation Xrotation
							End Site
							{
								OFFSET 0.000000 0.000000 0.000000 
							}
						}
					}
				}
			}
			JOINT RightArm
			{
				OFFSET -3.136600 1.374050 -0.404650 
				CHANNELS 3 Zrotation Yrotation Xrotation
				JOINT RightForeArm
				{
					OFFSET -5.241900 -0.000000 -0.000000 
					CHANNELS 3 Zrotation Yrotation Xrotation
					JOINT RightHand
					{
						OFFSET -3.444170 -0.000000 -0.000000 
						CHANNELS 3 Zrotation Yrotation Xrotation
						JOINT RightHandIndex1
						{
							OFFSET -0.622530 -0.000000 -0.000000 
							CHANNELS 3 Zrotation Yrotation Xrotation
							End Site
							{
								OFFSET 0.000000 0.000000 0.000000 
							}
						}
					}
				}
			}
		}
	}
}
MOTION
Frames: 13
Frame Time: 0.041667
9.619676 17.626459 4.646550 -178.498365 8.128331 172.619197 -23.615004 -16.643169 11.590771 -1.432617 5.731977 18.656244 -5.658156 24.377091 -19.575165 0.131200 -2.334500 -6.431000 32.764366 12.510274 10.244959 -0.415119 -7.673375 21.512687 3.337039 -23.016269 -27.588330 -0.725700 5.443100 -15.176800 1.555339 2.683992 1.774458 -5.156187 1.397754 5.921025 3.681950 10.963339 7.727284 -3.862800 5.605800 3.373000 -67.158929 -22.258561 4.482727 139.172758 -52.761159 -102.065477 -0.254324 -1.192422 4.219108 -7.125000 0.000000 0.000000 77.760249 28.147038 12.353784 -134.738966 54.151962 -98.661058 -0.250901 0.797808 -10.832064 7.125000 0.000000 0.000000 
9.614650 17.628744 4.635584 -178.523901 8.216086 172.709618 -23.662711 -16.635182 11.575136 -1.441930 5.722627 18.618115 -5.673018 24.448558 -19.651933 0.132700 -2.348300 -6.469100 32.737767 12.639132 10.191817 -0.420235 -7.691160 21.551763 3.351532 -23.060761 -27.573675 -0.743000 5.506400 -15.358800 1.544604 2.707338 1.745693 -5.112017 1.409038 5.959902 3.698067 10.895312 7.765817 -3.836600 5.575700 3.388300 -64.933626 -21.481218 -0.062472 138.569491 -52.926321 -101.685135 -0.309096 -1.127785 4.182087 -7.125000 0.000000 0.000000 74.871759 28.238985 7.428030 -133.460253 54.622810 -97.809829 -0.203822 0.777873 -11.003335 7.125000 0.000000 0.000000 
9.608939 17.630115 4.623247 -178.584864 8.270807 172.783056 -23.756395 -16.629835 11.568786 -1.451017 5.715939 18.582156 -5.688539 24.520733 -19.710257 0.137100 -2.386300 -6.574600 32.665119 12.727685 10.147398 -0.427657 -7.708060 21.596557 3.375948 -23.133342 -27.546520 -0.774500 5.619200 -15.683400 1.536856 2.707425 1.720480 -5.047973 1.405262 5.985514 3.735186 10.823694 7.823749 -3.802000 5.547300 3.400700 -63.116365 -20.600646 -4.229170 138.022186 -53.091183 -101.341612 -0.352716 -1.067532 4.153236 -7.125000 0.000000 0.000000 72.202763 28.164398 2.921430 -132.066168 55.139308 -96.885354 -0.158450 0.774865 -11.136714 7.125000 0.000000 0.000000 
9.603342 17.630343 4.609540 -178.663863 8.294749 172.829833 -23.870957 -16.612341 11.576321 -1.458514 5.710756 18.550792 -5.700698 24.575966 -19.740231 0.142800 -2.435200 -6.709900 32.573642 12.781220 10.127424 -0.436375 -7.723013 21.645319 3.396023 -23.201151 -27.542196 -0.805000 5.726000 -15.991400 1.532943 2.694928 1.698830 -4.972344 1.392973 5.985587 3.773081 10.746701 7.884903 -3.773100 5.517400 3.402000 -61.710438 -19.632901 -7.934951 137.619275 -53.206833 -101.089134 -0.382460 -1.014872 4.176403 -7.125000 0.000000 0.000000 69.800035 27.864887 -1.098490 -130.725216 55.624985 -96.002445 -0.119729 0.786533 -11.179248 7.125000 0.000000 0.000000 
9.597973 17.629658 4.595033 -178.739114 8.292413 172.848476 -23.980608 -16.576997 11.597918 -1.463041 5.707024 18.529107 -5.704748 24.598929 -19.744205 0.148400 -2.482300 -6.840500 32.492838 12.815280 10.145299 -0.444776 -7.734440 21.693215 3.404380 -23.249267 -27.581954 -0.824600 5.793900 -16.187500 1.532392 2.679885 1.679994 -4.906825 1.379515 5.952534 3.799203 10.672186 7.954446 -3.758800 5.490400 3.404900 -60.704306 -18.597787 -11.101790 137.422984 -53.239737 -100.963736 -0.399842 -0.970275 4.250242 -7.125000 0.000000 0.000000 67.705232 27.315058 -4.575729 -129.565379 56.031266 -95.248113 -0.090975 0.806849 -11.111575 7.125000 0.000000 0.000000 
9.593290 17.628858 4.580412 -178.792043 8.267912 172.845312 -24.062744 -16.521758 11.630665 -1.465152 5.701498 18.509811 -5.705981 24.599717 -19.708973 0.155300 -2.539100 -6.998000 32.444163 12.848752 10.198517 -0.452292 -7.744148 21.741985 3.393704 -23.258865 -27.678426 -0.825800 5.798000 -16.199400 1.532443 2.665968 1.665594 -4.879243 1.370772 5.896796 3.795958 10.598918 8.024247 -3.768300 5.464000 3.412600 -60.054418 -17.528853 -13.704587 137.465860 -53.170918 -100.981147 -0.407297 -0.937971 4.318527 -7.125000 0.000000 0.000000 65.956925 26.538297 -7.479242 -128.656444 56.340544 -94.667537 -0.072856 0.828020 -10.944996 7.125000 0.000000 0.000000 
9.589063 17.627944 4.566134 -178.809266 8.231213 172.833870 -24.098369 -16.452653 11.668338 -1.465850 5.691209 18.484544 -5.711073 24.595442 -19.632950 0.164300 -2.611400 -7.198600 32.438269 12.871931 10.258291 -0.459422 -7.756890 21.795266 3.386027 -23.279526 -27.776131 -0.827800 5.804700 -16.218900 1.534265 2.648535 1.655336 -4.887605 1.363651 5.831041 3.761347 10.531819 8.112197 -3.799200 5.442000 3.441000 -59.703760 -16.450427 -15.784999 137.744678 -52.992889 -101.142529 -0.404485 -0.918432 4.348507 -7.125000 0.000000 0.000000 64.551034 25.598240 -9.804626 -128.012166 56.555584 -94.266181 -0.063665 0.843643 -10.719793 7.125000 0.000000 0.000000 
9.585751 17.627830 4.552769 -178.807065 8.186581 172.819532 -24.105883 -16.378209 11.709925 -1.466921 5.675296 18.447600 -5.721923 24.597912 -19.529651 0.175300 -2.696800 -7.435600 32.451725 12.895801 10.314706 -0.466951 -7.773022 21.856688 3.362602 -23.256099 -27.893741 -0.818100 5.771500 -16.122900 1.537186 2.626721 1.648289 -4.915004 1.355835 5.762498 3.707846 10.462863 8.215818 -3.841900 5.420300 3.488800 -59.581682 -15.393659 -17.440122 138.189314 -52.733022 -101.407514 -0.390830 -0.912552 4.379576 -7.125000 0.000000 0.000000 63.448560 24.556779 -11.602483 -127.600330 56.692750 -94.018518 -0.060749 0.850788 -10.483238 7.125000 0.000000 0.000000 
9.582895 17.627830 4.540318 -178.819968 8.136604 172.800821 -24.129862 -16.313381 11.758583 -1.469432 5.657392 18.403249 -5.735976 24.612640 -19.430277 0.187000 -2.785200 -7.681200 32.442261 12.911417 10.362979 -0.475571 -7.789869 21.922244 3.323724 -23.182352 -28.017346 -0.797300 5.699200 -15.914100 1.538023 2.606943 1.643441 -4.944887 1.349307 5.695829 3.659606 10.382286 8.335413 -3.882000 5.394700 3.552200 -59.597582 -14.398022 -18.754119 138.716716 -52.427289 -101.727449 -0.366928 -0.920556 4.441411 -7.125000 0.000000 0.000000 62.578832 23.458049 -12.987388 -127.341186 56.782771 -93.868438 -0.060699 0.851205 -10.259313 7.125000 0.000000 0.000000 
9.580611 17.627716 4.528895 -178.846352 8.085823 172.785751 -24.175120 -16.271419 11.809647 -1.473166 5.641129 18.360655 -5.749982 24.636859 -19.358136 0.197600 -2.862200 -7.895400 32.410502 12.927911 10.404208 -0.483896 -7.804042 21.982985 3.265927 -23.052476 -28.158205 -0.760600 5.569500 -15.540300 1.533218 2.605067 1.637631 -4.988201 1.353246 5.627438 3.634987 10.275361 8.466104 -3.911600 5.358000 3.621000 -59.635583 -13.513958 -19.779645 139.222174 -52.129040 -102.040120 -0.336463 -0.937475 4.545943 -7.125000 0.000000 0.000000 61.866744 22.310172 -14.086434 -127.142329 56.859438 -93.752500 -0.060550 0.847550 -10.062048 7.125000 0.000000 0.000000 
9.579126 17.627830 4.518272 -178.868527 8.031584 172.783210 -24.215350 -16.252637 11.837723 -1.474449 5.634557 18.340414 -5.762157 24.660429 -19.302420 0.207500 -2.932800 -8.091700 32.379265 12.948433 10.437863 -0.488895 -7.811562 22.023000 3.199575 -22.898270 -28.309862 -0.714800 5.403100 -15.061800 1.525840 2.619825 1.628763 -5.033532 1.365670 5.557736 3.636290 10.149602 8.587262 -3.930500 5.312100 3.674600 -59.609029 -12.751709 -20.565590 139.610891 -51.893848 -102.288394 -0.305489 -0.953634 4.673312 -7.125000 0.000000 0.000000 61.220233 21.142152 -14.974845 -126.924443 56.949837 -93.617374 -0.058519 0.841851 -9.906788 7.125000 0.000000 0.000000 
9.578440 17.627487 4.508791 -178.879122 7.965752 172.799124 -24.233419 -16.252363 11.824773 -1.470973 5.642691 18.355330 -5.771145 24.672177 -19.242335 0.218200 -3.006800 -8.297700 32.360351 12.958776 10.462366 -0.488757 -7.809254 22.030230 3.140674 -22.769552 -28.460170 -0.670100 5.234900 -14.579800 1.518086 2.643792 1.613167 -5.071245 1.380821 5.474937 3.656325 10.017744 8.690363 -3.941900 5.262500 3.704200 -59.448935 -12.099799 -21.142203 139.821347 -51.761498 -102.433240 -0.283138 -0.958462 4.766360 -7.125000 0.000000 0.000000 60.557134 19.976643 -15.695316 -126.620441 57.075003 -93.418752 -0.053014 0.835850 -9.798399 7.125000 0.000000 0.000000 
9.578783 17.626573 4.500339 -178.874438 7.879940 172.831164 -24.226291 -16.273814 11.763990 -1.461173 5.669936 18.416531 -5.770832 24.654851 -19.182365 0.228400 -3.076000 -8.490400 32.357613 12.945035 10.481284 -0.482321 -7.794372 21.995932 3.108543 -22.722391 -28.588753 -0.638900 5.113900 -14.233800 1.510584 2.667280 1.591106 -5.099122 1.394055 5.384271 3.684593 9.891579 8.771608 -3.948500 5.213900 3.712700 -59.104720 -11.556980 -21.541279 139.821043 -51.755224 -102.452147 -0.276843 -0.946773 4.756626 -7.125000 0.000000 0.000000 59.834669 18.857486 -16.273239 -126.187617 57.246587 -93.129656 -0.043689 0.830803 -9.724393 7.125000 0.000000 0.000000 
